# xmcd
#
# Track frame offsets:
#	150
#	27155
#	54122
#	74985
#	104905
#	139282
#	165947
#	190412
#	207275
#	227532
#
# Disc length: 3360 seconds
#
# Revision: 851283298
# Processed by: cddbd v1.5.2PL0 Copyright (c) Steve Scherf et al.
# Submitted via: EZCDAudioConverter 8.0.2.1
#
DISCID=900d1e0a
DTITLE=Khánh Hà - Tiếng Sáo Thiên Thai
DYEAR=2000
DGENRE=Miscellaneous
TTITLE0=Tôi với trời bơ vơ
TTITLE1=Cỏ hồng
TTITLE2=Bay đi cánh chim biển
TTITLE3=Giọt mưa thu
TTITLE4=Lá thư
TTITLE5=Tiếng Sáo Thiên Thai
TTITLE6=Nửa hồn thương đau
TTITLE7=Nỗi yêu bất tận
TTITLE8=Hãy khóc đi em
TTITLE9=Từ giọng hát em
EXTD=
EXTT0=
EXTT1=
EXTT2=
EXTT3=
EXTT4=
EXTT5=
EXTT6=
EXTT7=
EXTT8=
EXTT9=
PLAYORDER=
